<svg xmlns="http://www.w3.org/2000/svg" viewBox="0 0 24 24" fill="white"><path d="M12 2C6.48 2 2 6.48 2 12s4.48 10 10 10 10-4.48 10-10S17.52 2 12 2zm4.64 6.8c-.15 1.58-.8 5.42-1.13 7.19-.14.75-.42 1-.68 1.03-.58.05-1.02-.38-1.58-.75-.88-.58-1.38-.94-2.23-1.5-.99-.65-.35-1.01.22-1.59.15-.15 2.71-2.48 2.76-2.69.01-.03.01-.14-.07-.2-.08-.06-.19-.04-.27-.02-.11.02-1.93 1.23-5.46 3.62-.51.35-.98.52-1.4.51-.46-.01-1.35-.26-2.01-.48-.81-.27-1.45-.42-1.39-.88.03-.24.36-.49 1-.74 3.92-1.7 6.54-2.82 7.84-3.36 3.73-1.54 4.5-1.81 5.01-1.82.11 0 .36.03.52.16.13.11.17.26.19.37.02.08.02.24 0 .37z"/></svg>